<svg version="1.1" id="Layer_1" xmlns="http://www.w3.org/2000/svg" xmlns:xlink="http://www.w3.org/1999/xlink" x="0px" y="0px"
	 width="100%" viewBox="0 0 1909 671" enable-background="new 0 0 1909 671" xml:space="preserve">
<path fill="#121621" opacity="1.000000" stroke="none" 
	d="
M1468.000000,672.000000 
	C978.666687,672.000000 489.833344,672.000000 1.000000,672.000000 
	C1.000000,448.333344 1.000000,224.666672 1.000000,1.000000 
	C637.333313,1.000000 1273.666626,1.000000 1910.000000,1.000000 
	C1910.000000,224.666672 1910.000000,448.333344 1910.000000,672.000000 
	C1762.833374,672.000000 1615.666626,672.000000 1468.000000,672.000000 
M650.325439,256.025604 
	C637.794678,209.130737 615.417419,167.351822 582.419250,131.931641 
	C510.566010,54.804478 421.558807,22.211424 316.999817,34.510612 
	C258.141541,41.434071 205.423569,64.769455 161.062225,104.159317 
	C71.894035,183.334625 37.703739,282.518829 61.234562,399.374451 
	C78.424057,484.738617 127.015518,549.926819 201.195450,595.174500 
	C265.500275,634.398682 335.590546,646.562927 409.695160,634.041626 
	C474.309082,623.123901 529.449768,593.433044 575.051758,546.520325 
	C618.627563,501.692047 645.849121,448.283508 656.507507,386.561829 
	C664.052490,342.869751 662.004028,299.624878 650.325439,256.025604 
M840.448608,243.997421 
	C829.468811,243.997421 818.488953,243.997421 807.417969,243.997421 
	C779.563721,318.809540 751.797363,393.385345 723.828125,468.506226 
	C739.969727,468.506226 755.419556,468.566437 770.866272,468.375427 
	C771.935730,468.362183 773.498291,466.667725 773.951721,465.432190 
	C776.181946,459.355530 778.096008,453.163422 780.157410,447.024017 
	C782.938416,438.741119 785.752014,430.469177 788.492676,422.366669 
	C815.841797,422.366669 842.626892,422.366669 869.617554,422.366669 
	C874.136353,435.844391 878.806396,449.149902 882.990845,462.606384 
	C884.378479,467.068665 886.241455,468.814545 891.175171,468.652069 
	C903.986816,468.230286 916.821594,468.519562 929.647095,468.497253 
	C931.043762,468.494812 932.440186,468.311005 934.060974,468.195312 
	C933.570007,466.651642 933.271484,465.547241 932.872009,464.480652 
	C906.383179,393.763214 879.889343,323.047668 853.386108,252.335663 
	C850.257202,243.987732 850.231323,243.997421 840.448608,243.997421 
M1116.364746,337.627197 
	C1124.340942,334.303162 1132.517578,334.238647 1140.857056,335.961365 
	C1148.864258,337.615448 1153.978760,342.520477 1155.825195,350.234344 
	C1157.090576,355.521149 1157.631470,361.095520 1157.659302,366.545593 
	C1157.822510,398.539368 1157.739502,430.534393 1157.739624,462.528992 
	C1157.739624,464.341553 1157.739624,466.154114 1157.739624,468.238525 
	C1172.686890,468.238525 1187.260986,468.238525 1201.964966,468.238525 
	C1202.038574,466.821289 1202.150513,465.668243 1202.150757,464.515228 
	C1202.159058,430.520966 1202.206299,396.526550 1202.104370,362.532593 
	C1202.087891,357.052673 1201.703491,351.533112 1200.959473,346.104523 
	C1199.308228,334.057678 1195.742065,322.674866 1187.133423,313.604980 
	C1173.526245,299.268860 1147.030273,294.478973 1126.639282,302.386780 
	C1117.518066,305.923981 1109.996826,311.707092 1102.597168,319.931427 
	C1102.597168,289.764465 1102.597168,260.930084 1102.597168,232.142944 
	C1087.406006,232.142944 1072.834717,232.142944 1058.291870,232.142944 
	C1058.291870,311.018372 1058.291870,389.579254 1058.291870,468.181580 
	C1073.153198,468.181580 1087.731445,468.181580 1102.684204,468.181580 
	C1102.684204,466.055359 1102.684326,464.249390 1102.684204,462.443420 
	C1102.683960,427.782593 1103.030273,393.116241 1102.474976,358.464325 
	C1102.305908,347.911743 1107.036255,342.056030 1116.364746,337.627197 
M1718.632324,368.505554 
	C1718.632202,365.174438 1718.642456,361.843262 1718.630249,358.512177 
	C1718.542480,334.681641 1709.355835,316.201263 1687.045288,305.783569 
	C1676.189819,300.714691 1664.557007,298.814789 1652.598022,298.852997 
	C1631.746216,298.919647 1612.213501,303.131287 1596.281738,317.672943 
	C1586.454956,326.642548 1580.721802,337.695221 1580.774414,351.578796 
	C1595.714722,351.578796 1610.271484,351.578796 1624.772461,351.578796 
	C1628.107666,335.768860 1639.080078,329.000610 1655.621826,332.322235 
	C1669.934326,335.196198 1676.609009,348.046539 1673.261230,366.829468 
	C1667.046387,366.829468 1660.751709,366.851807 1654.457275,366.825043 
	C1639.041626,366.759552 1623.964111,368.523529 1609.408813,374.064453 
	C1573.202881,387.847412 1571.415039,426.119659 1583.271851,446.105164 
	C1594.865356,465.646545 1623.000732,476.231659 1647.303833,470.399719 
	C1658.265503,467.769287 1667.582520,462.420410 1675.594971,453.966370 
	C1675.911377,455.478302 1676.081055,456.411469 1676.303101,457.331970 
	C1679.001221,468.513641 1679.003296,468.513153 1690.524170,468.513153 
	C1701.953735,468.513153 1713.383301,468.513153 1724.811890,468.513153 
	C1724.964966,467.479065 1725.156128,466.980225 1725.080444,466.525787 
	C1724.945923,465.718628 1724.734253,464.901611 1724.408081,464.152527 
	C1720.422607,454.997192 1718.979858,445.334198 1718.906372,435.456146 
	C1718.742798,413.472504 1718.716675,391.487823 1718.632324,368.505554 
M1297.066650,431.601227 
	C1284.061401,425.166962 1277.255493,414.434204 1275.146240,399.693054 
	C1310.563843,399.693054 1345.771973,399.693054 1381.706421,399.693054 
	C1381.136353,387.101013 1381.171387,375.079834 1379.947754,363.188171 
	C1375.910278,323.954102 1348.440918,299.089874 1309.167358,298.899414 
	C1275.675293,298.737000 1249.248535,314.464569 1236.814941,346.607056 
	C1229.660522,365.102112 1228.606079,384.176025 1230.939941,403.591064 
	C1233.623413,425.914825 1243.731445,444.226044 1262.364746,456.897125 
	C1287.744263,474.155731 1315.429688,475.658630 1343.973022,466.225220 
	C1357.695190,461.690094 1369.031372,453.476959 1377.639648,441.390411 
	C1370.328369,433.228638 1363.133911,425.197266 1355.890015,417.110718 
	C1340.667969,436.011932 1315.282959,439.398224 1297.066650,431.601227 
M1405.729492,321.500183 
	C1405.729492,370.399078 1405.729492,419.297974 1405.729492,468.257874 
	C1420.919800,468.257874 1435.360352,468.257874 1450.150391,468.257874 
	C1450.150391,466.196442 1450.150391,464.382080 1450.150391,462.567719 
	C1450.150391,427.073395 1450.222534,391.578735 1450.057617,356.085175 
	C1450.037354,351.728241 1451.416260,348.400177 1454.163452,345.301086 
	C1463.255859,335.043762 1474.825439,333.468445 1487.477417,335.766663 
	C1496.815674,337.462952 1502.368286,342.767487 1503.989502,351.966461 
	C1504.735352,356.198456 1505.012573,360.561829 1505.023315,364.866821 
	C1505.105103,397.528046 1505.068359,430.189575 1505.068359,462.851013 
	C1505.068359,464.611969 1505.068237,466.372925 1505.068237,468.199829 
	C1520.261108,468.199829 1534.849121,468.199829 1549.584595,468.199829 
	C1549.668579,467.092743 1549.783203,466.285004 1549.783447,465.477234 
	C1549.790283,430.816101 1549.970093,396.153320 1549.653564,361.495056 
	C1549.576538,353.067596 1548.562866,344.500397 1546.744019,336.270569 
	C1543.736084,322.660217 1537.385132,310.548798 1523.992310,304.621429 
	C1502.608643,295.157471 1481.532349,296.481354 1461.712036,309.363434 
	C1457.228394,312.277588 1453.430176,316.246246 1449.034302,319.968414 
	C1448.517334,313.831360 1448.021606,307.946594 1447.535767,302.179077 
	C1433.367554,302.179077 1419.626709,302.179077 1405.729858,302.179077 
	C1405.729858,308.518494 1405.729858,314.509338 1405.729492,321.500183 
M966.216675,449.171570 
	C970.514038,458.137024 977.215027,464.631775 986.596741,467.930481 
	C1003.032471,473.709320 1019.473389,472.499084 1035.626831,467.776978 
	C1035.626831,456.218628 1035.626831,445.174744 1035.626831,434.913300 
	C1030.269043,434.913300 1025.287109,435.096802 1020.323242,434.874634 
	C1010.347473,434.428192 1006.359680,430.259888 1005.939026,420.203674 
	C1005.876465,418.706482 1005.846985,417.206757 1005.846680,415.708221 
	C1005.841370,390.224731 1005.839661,364.741272 1005.852295,339.257782 
	C1005.853027,337.798096 1005.983887,336.338470 1006.080505,334.331543 
	C1015.538513,334.331543 1024.747681,334.331543 1033.880859,334.331543 
	C1033.880859,323.197052 1033.880859,312.629089 1033.880859,301.698364 
	C1024.464355,301.698364 1015.367920,301.698364 1005.768066,301.698364 
	C1005.768066,287.939789 1005.768066,274.540802 1005.768066,261.089172 
	C990.672302,261.089172 976.093445,261.089172 960.998474,261.089172 
	C960.998474,274.727783 960.998474,288.115479 960.998474,301.902283 
	C952.742981,301.902283 944.995239,301.902283 937.097412,301.902283 
	C937.097412,312.897003 937.097412,323.477325 937.097412,334.452698 
	C945.074097,334.452698 952.841919,334.452698 961.102539,334.452698 
	C961.102539,336.634399 961.102539,338.425110 961.102539,340.215790 
	C961.102722,367.364838 960.708801,394.522888 961.326233,421.657898 
	C961.530212,430.621307 964.343567,439.525299 966.216675,449.171570 
z"/>
<path fill="#FAFAFA" opacity="1.000000" stroke="none" 
	d="
M650.430054,256.418213 
	C662.004028,299.624878 664.052490,342.869751 656.507507,386.561829 
	C645.849121,448.283508 618.627563,501.692047 575.051758,546.520325 
	C529.449768,593.433044 474.309082,623.123901 409.695160,634.041626 
	C335.590546,646.562927 265.500275,634.398682 201.195450,595.174500 
	C127.015518,549.926819 78.424057,484.738617 61.234562,399.374451 
	C37.703739,282.518829 71.894035,183.334625 161.062225,104.159317 
	C205.423569,64.769455 258.141541,41.434071 316.999817,34.510612 
	C421.558807,22.211424 510.566010,54.804478 582.419250,131.931641 
	C615.417419,167.351822 637.794678,209.130737 650.430054,256.418213 
M93.024277,233.523560 
	C70.017609,294.543213 66.703781,356.675446 87.022110,418.618958 
	C120.140907,519.586548 188.994904,584.073242 292.052887,610.471191 
	C352.439575,625.938965 411.934082,620.053284 469.028259,595.411865 
	C595.022949,541.033691 664.015076,405.987183 633.553955,272.720612 
	C615.329834,192.990829 570.092163,132.021179 499.720062,90.448883 
	C445.482330,58.407990 386.530243,46.793289 323.929779,53.955509 
	C282.939209,58.645298 244.787399,71.857613 209.758514,93.509666 
	C155.589539,126.992622 116.755333,173.530548 93.024277,233.523560 
z"/>
<path fill="#FEFEFE" opacity="1.000000" stroke="none" 
	d="
M840.936890,243.997421 
	C850.231323,243.997421 850.257202,243.987732 853.386108,252.335663 
	C879.889343,323.047668 906.383179,393.763214 932.872009,464.480652 
	C933.271484,465.547241 933.570007,466.651642 934.060974,468.195312 
	C932.440186,468.311005 931.043762,468.494812 929.647095,468.497253 
	C916.821594,468.519562 903.986816,468.230286 891.175171,468.652069 
	C886.241455,468.814545 884.378479,467.068665 882.990845,462.606384 
	C878.806396,449.149902 874.136353,435.844391 869.617554,422.366669 
	C842.626892,422.366669 815.841797,422.366669 788.492676,422.366669 
	C785.752014,430.469177 782.938416,438.741119 780.157410,447.024017 
	C778.096008,453.163422 776.181946,459.355530 773.951721,465.432190 
	C773.498291,466.667725 771.935730,468.362183 770.866272,468.375427 
	C755.419556,468.566437 739.969727,468.506226 723.828125,468.506226 
	C751.797363,393.385345 779.563721,318.809540 807.417969,243.997421 
	C818.488953,243.997421 829.468811,243.997421 840.936890,243.997421 
M817.971924,333.492188 
	C812.334412,350.471954 806.696838,367.451721 801.000549,384.608612 
	C819.843201,384.608612 838.213257,384.608612 857.034668,384.608612 
	C847.707520,356.861267 838.496399,329.459320 828.874817,300.836304 
	C824.993713,312.386627 821.577148,322.554413 817.971924,333.492188 
z"/>
<path fill="#FDFDFD" opacity="1.000000" stroke="none" 
	d="
M1116.005127,337.769104 
	C1107.036255,342.056030 1102.305908,347.911743 1102.474976,358.464325 
	C1103.030273,393.116241 1102.683960,427.782593 1102.684204,462.443420 
	C1102.684326,464.249390 1102.684204,466.055359 1102.684204,468.181580 
	C1087.731445,468.181580 1073.153198,468.181580 1058.291870,468.181580 
	C1058.291870,389.579254 1058.291870,311.018372 1058.291870,232.142944 
	C1072.834717,232.142944 1087.406006,232.142944 1102.597168,232.142944 
	C1102.597168,260.930084 1102.597168,289.764465 1102.597168,319.931427 
	C1109.996826,311.707092 1117.518066,305.923981 1126.639282,302.386780 
	C1147.030273,294.478973 1173.526245,299.268860 1187.133423,313.604980 
	C1195.742065,322.674866 1199.308228,334.057678 1200.959473,346.104523 
	C1201.703491,351.533112 1202.087891,357.052673 1202.104370,362.532593 
	C1202.206299,396.526550 1202.159058,430.520966 1202.150757,464.515228 
	C1202.150513,465.668243 1202.038574,466.821289 1201.964966,468.238525 
	C1187.260986,468.238525 1172.686890,468.238525 1157.739624,468.238525 
	C1157.739624,466.154114 1157.739624,464.341553 1157.739624,462.528992 
	C1157.739502,430.534393 1157.822510,398.539368 1157.659302,366.545593 
	C1157.631470,361.095520 1157.090576,355.521149 1155.825195,350.234344 
	C1153.978760,342.520477 1148.864258,337.615448 1140.857056,335.961365 
	C1132.517578,334.238647 1124.340942,334.303162 1116.005127,337.769104 
z"/>
<path fill="#FDFDFD" opacity="1.000000" stroke="none" 
	d="
M1718.633301,369.004578 
	C1718.716675,391.487823 1718.742798,413.472504 1718.906372,435.456146 
	C1718.979858,445.334198 1720.422607,454.997192 1724.408081,464.152527 
	C1724.734253,464.901611 1724.945923,465.718628 1725.080444,466.525787 
	C1725.156128,466.980225 1724.964966,467.479065 1724.811890,468.513153 
	C1713.383301,468.513153 1701.953735,468.513153 1690.524170,468.513153 
	C1679.003296,468.513153 1679.001221,468.513641 1676.303101,457.331970 
	C1676.081055,456.411469 1675.911377,455.478302 1675.594971,453.966370 
	C1667.582520,462.420410 1658.265503,467.769287 1647.303833,470.399719 
	C1623.000732,476.231659 1594.865356,465.646545 1583.271851,446.105164 
	C1571.415039,426.119659 1573.202881,387.847412 1609.408813,374.064453 
	C1623.964111,368.523529 1639.041626,366.759552 1654.457275,366.825043 
	C1660.751709,366.851807 1667.046387,366.829468 1673.261230,366.829468 
	C1676.609009,348.046539 1669.934326,335.196198 1655.621826,332.322235 
	C1639.080078,329.000610 1628.107666,335.768860 1624.772461,351.578796 
	C1610.271484,351.578796 1595.714722,351.578796 1580.774414,351.578796 
	C1580.721802,337.695221 1586.454956,326.642548 1596.281738,317.672943 
	C1612.213501,303.131287 1631.746216,298.919647 1652.598022,298.852997 
	C1664.557007,298.814789 1676.189819,300.714691 1687.045288,305.783569 
	C1709.355835,316.201263 1718.542480,334.681641 1718.630249,358.512177 
	C1718.642456,361.843262 1718.632202,365.174438 1718.633301,369.004578 
M1635.996948,396.217163 
	C1634.665771,396.895813 1633.306641,397.525269 1632.007935,398.261292 
	C1625.008179,402.228760 1620.593506,411.761902 1621.661743,420.538300 
	C1622.648682,428.646210 1627.433594,434.784576 1635.311401,436.407806 
	C1648.876465,439.202942 1661.104858,436.467285 1670.754028,425.807953 
	C1672.051758,424.374237 1673.679565,422.510620 1673.733765,420.800964 
	C1674.026978,411.554718 1673.872559,402.294312 1673.872559,392.800323 
	C1661.019775,393.198242 1648.629150,391.462463 1635.996948,396.217163 
z"/>
<path fill="#FDFDFD" opacity="1.000000" stroke="none" 
	d="
M1297.414185,431.762939 
	C1315.282959,439.398224 1340.667969,436.011932 1355.890015,417.110718 
	C1363.133911,425.197266 1370.328369,433.228638 1377.639648,441.390411 
	C1369.031372,453.476959 1357.695190,461.690094 1343.973022,466.225220 
	C1315.429688,475.658630 1287.744263,474.155731 1262.364746,456.897125 
	C1243.731445,444.226044 1233.623413,425.914825 1230.939941,403.591064 
	C1228.606079,384.176025 1229.660522,365.102112 1236.814941,346.607056 
	C1249.248535,314.464569 1275.675293,298.737000 1309.167358,298.899414 
	C1348.440918,299.089874 1375.910278,323.954102 1379.947754,363.188171 
	C1381.171387,375.079834 1381.136353,387.101013 1381.706421,399.693054 
	C1345.771973,399.693054 1310.563843,399.693054 1275.146240,399.693054 
	C1277.255493,414.434204 1284.061401,425.166962 1297.414185,431.762939 
M1322.405273,337.924042 
	C1298.813599,328.147308 1278.158813,341.655945 1276.114624,368.818420 
	C1296.513672,368.818420 1316.906128,368.818420 1337.401245,368.818420 
	C1337.501831,356.067657 1335.029053,344.918884 1322.405273,337.924042 
z"/>
<path fill="#FDFDFD" opacity="1.000000" stroke="none" 
	d="
M1405.729736,321.000183 
	C1405.729858,314.509338 1405.729858,308.518494 1405.729858,302.179077 
	C1419.626709,302.179077 1433.367554,302.179077 1447.535767,302.179077 
	C1448.021606,307.946594 1448.517334,313.831360 1449.034302,319.968414 
	C1453.430176,316.246246 1457.228394,312.277588 1461.712036,309.363434 
	C1481.532349,296.481354 1502.608643,295.157471 1523.992310,304.621429 
	C1537.385132,310.548798 1543.736084,322.660217 1546.744019,336.270569 
	C1548.562866,344.500397 1549.576538,353.067596 1549.653564,361.495056 
	C1549.970093,396.153320 1549.790283,430.816101 1549.783447,465.477234 
	C1549.783203,466.285004 1549.668579,467.092743 1549.584595,468.199829 
	C1534.849121,468.199829 1520.261108,468.199829 1505.068237,468.199829 
	C1505.068237,466.372925 1505.068359,464.611969 1505.068359,462.851013 
	C1505.068359,430.189575 1505.105103,397.528046 1505.023315,364.866821 
	C1505.012573,360.561829 1504.735352,356.198456 1503.989502,351.966461 
	C1502.368286,342.767487 1496.815674,337.462952 1487.477417,335.766663 
	C1474.825439,333.468445 1463.255859,335.043762 1454.163452,345.301086 
	C1451.416260,348.400177 1450.037354,351.728241 1450.057617,356.085175 
	C1450.222534,391.578735 1450.150391,427.073395 1450.150391,462.567719 
	C1450.150391,464.382080 1450.150391,466.196442 1450.150391,468.257874 
	C1435.360352,468.257874 1420.919800,468.257874 1405.729492,468.257874 
	C1405.729492,419.297974 1405.729492,370.399078 1405.729736,321.000183 
z"/>
<path fill="#FDFDFD" opacity="1.000000" stroke="none" 
	d="
M966.090271,448.814026 
	C964.343567,439.525299 961.530212,430.621307 961.326233,421.657898 
	C960.708801,394.522888 961.102722,367.364838 961.102539,340.215790 
	C961.102539,338.425110 961.102539,336.634399 961.102539,334.452698 
	C952.841919,334.452698 945.074097,334.452698 937.097412,334.452698 
	C937.097412,323.477325 937.097412,312.897003 937.097412,301.902283 
	C944.995239,301.902283 952.742981,301.902283 960.998474,301.902283 
	C960.998474,288.115479 960.998474,274.727783 960.998474,261.089172 
	C976.093445,261.089172 990.672302,261.089172 1005.768066,261.089172 
	C1005.768066,274.540802 1005.768066,287.939789 1005.768066,301.698364 
	C1015.367920,301.698364 1024.464355,301.698364 1033.880859,301.698364 
	C1033.880859,312.629089 1033.880859,323.197052 1033.880859,334.331543 
	C1024.747681,334.331543 1015.538513,334.331543 1006.080505,334.331543 
	C1005.983887,336.338470 1005.853027,337.798096 1005.852295,339.257782 
	C1005.839661,364.741272 1005.841370,390.224731 1005.846680,415.708221 
	C1005.846985,417.206757 1005.876465,418.706482 1005.939026,420.203674 
	C1006.359680,430.259888 1010.347473,434.428192 1020.323242,434.874634 
	C1025.287109,435.096802 1030.269043,434.913300 1035.626831,434.913300 
	C1035.626831,445.174744 1035.626831,456.218628 1035.626831,467.776978 
	C1019.473389,472.499084 1003.032471,473.709320 986.596741,467.930481 
	C977.215027,464.631775 970.514038,458.137024 966.090271,448.814026 
z"/>
<path fill="#181C27" opacity="1.000000" stroke="none" 
	d="
M93.135483,233.150345 
	C116.755333,173.530548 155.589539,126.992622 209.758514,93.509666 
	C244.787399,71.857613 282.939209,58.645298 323.929779,53.955509 
	C386.530243,46.793289 445.482330,58.407990 499.720062,90.448883 
	C570.092163,132.021179 615.329834,192.990829 633.553955,272.720612 
	C664.015076,405.987183 595.022949,541.033691 469.028259,595.411865 
	C411.934082,620.053284 352.439575,625.938965 292.052887,610.471191 
	C188.994904,584.073242 120.140907,519.586548 87.022110,418.618958 
	C66.703781,356.675446 70.017609,294.543213 93.135483,233.150345 
M615.848877,286.650360 
	C611.162170,262.488190 603.455078,239.352203 592.320557,217.379791 
	C588.823547,210.479111 583.619385,208.641235 576.653809,212.111389 
	C568.460144,216.193329 560.330139,220.405746 552.222473,224.656815 
	C545.566040,228.146957 543.976318,233.081909 547.163879,240.040482 
	C548.827515,243.672272 550.780273,247.181305 552.278198,250.877182 
	C554.863464,257.255981 557.195862,263.737274 559.750366,270.481873 
	C555.951294,271.445465 553.103271,272.167816 550.971436,272.708527 
	C543.094666,256.273254 535.448303,240.318756 527.658875,224.065735 
	C540.475220,214.711594 553.831177,205.056488 567.076599,195.252029 
	C572.588379,191.172058 573.619080,185.766953 569.775208,180.474869 
	C550.873413,154.451767 527.947144,132.609238 500.995453,115.047218 
	C495.639557,111.557243 490.218781,112.636002 486.591003,117.946121 
	C480.955261,126.195328 475.492554,134.571121 470.219666,143.056747 
	C467.029266,148.190964 468.327850,153.474884 473.174713,157.120483 
	C474.771027,158.321198 476.514008,159.328339 478.097717,160.544159 
	C485.444031,166.184082 492.757904,171.866241 500.350983,177.740250 
	C497.567719,180.611343 495.523468,182.720093 494.011292,184.279984 
	C478.912170,173.941544 464.275757,163.919907 449.297760,153.664368 
	C455.448090,139.887650 461.908569,125.477943 468.314423,111.043968 
	C472.168701,102.359367 470.443542,97.494484 461.786407,93.989601 
	C453.313080,90.559135 444.756927,87.260529 436.049072,84.496552 
	C415.324524,77.918350 394.071808,73.980667 372.322723,72.978722 
	C365.061462,72.644211 361.185852,75.823593 360.643097,82.892227 
	C359.890594,92.692276 359.353668,102.515778 359.029022,112.339310 
	C358.816559,118.769249 362.535919,122.616371 368.904755,123.195084 
	C372.389587,123.511749 375.910217,123.525383 379.371002,123.996628 
	C387.034821,125.040184 394.670990,126.286461 402.668549,127.503342 
	C401.490936,131.463013 400.613281,134.414032 400.091614,136.168198 
	C383.725159,135.086273 368.147491,133.626160 352.544098,133.258514 
	C347.084808,133.129868 345.970856,131.482513 345.559570,126.662682 
	C344.327454,112.224411 342.696991,97.817886 341.059753,83.417412 
	C340.276520,76.528656 335.764893,72.958511 329.092590,73.701561 
	C297.840881,77.181831 268.136963,85.934044 240.025879,100.036751 
	C232.480988,103.821869 230.788162,108.886192 234.549301,116.396446 
	C238.350739,123.987160 242.266205,131.520721 246.122986,139.083786 
	C250.353302,147.379257 254.979431,148.738861 263.632416,144.829437 
	C272.979156,140.606537 282.496307,136.760757 292.509766,132.508118 
	C293.596466,136.484726 294.402710,139.435150 294.978668,141.542755 
	C278.427948,149.536728 262.490723,157.234390 246.380829,165.015442 
	C245.843292,164.290909 245.146667,163.365982 244.464600,162.430420 
	C235.632538,150.315582 226.850204,138.164093 217.952560,126.097641 
	C213.294098,119.780151 207.952652,119.037750 201.621170,123.601730 
	C199.594345,125.062759 197.602905,126.575493 195.635284,128.115692 
	C173.008835,145.827133 153.712479,166.621078 137.904633,190.626129 
	C133.956604,196.621384 134.615494,202.230484 140.048981,205.933838 
	C148.441574,211.654099 156.968399,217.188843 165.595963,222.548447 
	C170.376434,225.518127 175.369415,224.374268 178.954254,219.973755 
	C180.107086,218.558563 180.973846,216.913605 182.085831,215.461304 
	C187.985413,207.756302 193.921402,200.079163 199.641830,192.655746 
	C202.764526,195.353348 205.009903,197.293045 206.518372,198.596161 
	C196.139221,213.740524 186.104370,228.382492 175.914322,243.250916 
	C174.962906,242.841141 173.448547,242.205780 171.947708,241.539917 
	C158.410629,235.533768 144.909164,229.445770 131.325668,223.546585 
	C125.076149,220.832474 119.729927,222.716888 117.137062,228.602798 
	C104.182785,258.009521 96.819046,288.779633 95.154633,320.875946 
	C94.819809,327.332520 98.404953,331.498352 104.747704,331.979950 
	C114.714775,332.736694 124.702972,333.300201 134.692596,333.643463 
	C140.817978,333.853973 144.717331,330.161835 145.375687,324.104889 
	C145.699585,321.125061 145.646164,318.099731 146.049194,315.133820 
	C147.182297,306.795441 148.463669,298.477203 149.732040,289.841461 
	C153.610672,291.054291 156.543747,291.971466 158.359177,292.539154 
	C157.277130,308.958466 155.804581,324.524780 155.464493,340.115814 
	C155.344391,345.621735 153.723511,346.699890 148.863815,347.108185 
	C134.423676,348.321533 120.013695,349.934387 105.616943,351.606506 
	C98.433693,352.440826 95.114265,356.907104 96.049652,364.083374 
	C96.931953,370.852417 97.809181,377.637115 99.103203,384.334808 
	C103.803574,408.663269 111.704971,431.926544 123.000298,453.995514 
	C126.007454,459.870850 131.375015,461.579559 137.330688,458.644379 
	C145.840668,454.450317 154.302216,450.150635 162.686096,445.710358 
	C169.348770,442.181641 170.869797,437.148071 167.654709,430.232361 
	C165.970581,426.609772 164.010208,423.103821 162.517670,419.406677 
	C159.946884,413.038666 157.644119,406.562408 155.097198,399.780945 
	C159.018417,398.867798 161.872513,398.203156 163.922424,397.725769 
	C171.757706,414.135315 179.326096,429.985901 187.095047,446.256561 
	C186.436615,446.770050 185.172974,447.813904 183.850861,448.777527 
	C172.273743,457.216003 160.678345,465.629425 149.104568,474.072479 
	C141.749115,479.438263 141.001801,484.547974 146.393066,491.789581 
	C164.779572,516.486450 186.780685,537.367615 212.405823,554.437317 
	C219.374008,559.079102 224.552429,558.083923 229.286636,550.962769 
	C234.081314,543.750610 238.786621,536.478699 243.484909,529.203125 
	C248.254028,521.817871 247.082825,517.148193 239.817612,511.900818 
	C231.346710,505.782684 223.101456,499.352112 214.689667,493.005310 
	C217.371918,490.028595 219.440552,487.732880 220.954071,486.053192 
	C236.064484,496.346527 250.704300,506.319275 265.576904,516.450623 
	C265.295349,517.152405 264.903168,518.230774 264.437256,519.276306 
	C258.273590,533.109192 252.027847,546.906067 245.958679,560.780273 
	C242.997040,567.550598 244.906250,572.957825 251.264603,575.689087 
	C280.440094,588.221741 310.795868,595.884155 342.598419,597.354797 
	C349.971313,597.695801 353.688507,594.397217 354.270111,586.848877 
	C354.884338,578.876648 355.064423,570.871704 355.627411,562.894653 
	C356.481842,550.787903 353.780792,547.829041 341.823547,546.778870 
	C332.106812,545.925476 322.447906,544.413879 312.130463,543.114502 
	C313.257233,539.168762 314.104218,536.202881 314.746033,533.955383 
	C332.786438,535.419067 350.304474,536.840393 368.453949,538.312988 
	C368.623535,539.585754 368.949707,541.684082 369.176727,543.793091 
	C370.745667,558.370239 372.207245,572.959717 373.888855,587.523743 
	C374.628296,593.928040 379.414337,597.407593 385.828491,596.675293 
	C417.060120,593.109375 446.799072,584.513733 474.874969,570.290161 
	C482.348450,566.503967 484.070892,561.428101 480.267883,553.913940 
	C477.335571,548.120056 474.308838,542.374023 471.365906,536.585449 
	C463.418182,520.953308 461.984863,520.579468 446.143951,527.933044 
	C438.519257,531.472534 430.584320,534.343628 422.220154,537.749329 
	C421.205841,533.845825 420.435577,530.881470 419.873901,528.719910 
	C436.436401,520.803040 452.398682,513.173096 468.584259,505.436462 
	C477.847656,518.160767 487.309021,531.250854 496.878754,544.261108 
	C501.399292,550.406921 506.639648,551.527771 512.343689,547.387207 
	C538.239502,528.589355 559.890808,505.705597 577.466003,478.986145 
	C581.091553,473.474274 579.953674,467.909912 574.473816,464.190765 
	C566.345703,458.674103 558.108948,453.306396 549.764282,448.123505 
	C544.339600,444.754181 539.086060,446.020386 535.305481,451.143372 
	C534.318054,452.481445 533.530579,453.969482 532.518372,455.286499 
	C526.704773,462.850769 520.851196,470.384277 515.229431,477.646362 
	C512.141296,475.057007 509.875092,473.156860 508.280609,471.819946 
	C518.733765,456.568359 528.750916,441.952972 538.951172,427.070404 
	C553.247375,433.452545 567.956238,440.060425 582.702209,446.584198 
	C590.045959,449.833130 595.137207,447.686523 598.339722,440.289459 
	C610.701660,411.735779 617.786316,381.930817 619.620605,350.874359 
	C620.094299,342.854828 616.874084,338.910858 608.951111,338.296356 
	C601.808716,337.742432 594.639221,337.544861 587.484741,337.137817 
	C571.730164,336.241547 570.074829,337.913361 568.833801,353.480927 
	C568.125427,362.366638 566.498291,371.179108 565.228027,380.438904 
	C561.372192,379.321716 558.404663,378.461884 556.708130,377.970337 
	C557.538269,361.611969 558.649048,346.030579 558.940308,330.433868 
	C559.037292,325.238586 560.545105,323.689972 565.489319,323.283600 
	C579.929016,322.096863 594.338074,320.509369 608.741211,318.916931 
	C616.358826,318.074677 619.791931,313.402679 618.702759,305.778076 
	C617.831726,299.680786 616.867004,293.596924 615.848877,286.650360 
z"/>
<path fill="#161924" opacity="1.000000" stroke="none" 
	d="
M818.066284,333.107178 
	C821.577148,322.554413 824.993713,312.386627 828.874817,300.836304 
	C838.496399,329.459320 847.707520,356.861267 857.034668,384.608612 
	C838.213257,384.608612 819.843201,384.608612 801.000549,384.608612 
	C806.696838,367.451721 812.334412,350.471954 818.066284,333.107178 
z"/>
<path fill="#141823" opacity="1.000000" stroke="none" 
	d="
M1636.367676,396.095612 
	C1648.629150,391.462463 1661.019775,393.198242 1673.872559,392.800323 
	C1673.872559,402.294312 1674.026978,411.554718 1673.733765,420.800964 
	C1673.679565,422.510620 1672.051758,424.374237 1670.754028,425.807953 
	C1661.104858,436.467285 1648.876465,439.202942 1635.311401,436.407806 
	C1627.433594,434.784576 1622.648682,428.646210 1621.661743,420.538300 
	C1620.593506,411.761902 1625.008179,402.228760 1632.007935,398.261292 
	C1633.306641,397.525269 1634.665771,396.895813 1636.367676,396.095612 
z"/>
<path fill="#141822" opacity="1.000000" stroke="none" 
	d="
M1322.756348,338.061157 
	C1335.029053,344.918884 1337.501831,356.067657 1337.401245,368.818420 
	C1316.906128,368.818420 1296.513672,368.818420 1276.114624,368.818420 
	C1278.158813,341.655945 1298.813599,328.147308 1322.756348,338.061157 
z"/>
<path fill="#FAFAFA" opacity="1.000000" stroke="none" 
	d="
M615.896362,287.078735 
	C616.867004,293.596924 617.831726,299.680786 618.702759,305.778076 
	C619.791931,313.402679 616.358826,318.074677 608.741211,318.916931 
	C594.338074,320.509369 579.929016,322.096863 565.489319,323.283600 
	C560.545105,323.689972 559.037292,325.238586 558.940308,330.433868 
	C558.649048,346.030579 557.538269,361.611969 556.708130,377.970337 
	C558.404663,378.461884 561.372192,379.321716 565.228027,380.438904 
	C566.498291,371.179108 568.125427,362.366638 568.833801,353.480927 
	C570.074829,337.913361 571.730164,336.241547 587.484741,337.137817 
	C594.639221,337.544861 601.808716,337.742432 608.951111,338.296356 
	C616.874084,338.910858 620.094299,342.854828 619.620605,350.874359 
	C617.786316,381.930817 610.701660,411.735779 598.339722,440.289459 
	C595.137207,447.686523 590.045959,449.833130 582.702209,446.584198 
	C567.956238,440.060425 553.247375,433.452545 538.951172,427.070404 
	C528.750916,441.952972 518.733765,456.568359 508.280609,471.819946 
	C509.875092,473.156860 512.141296,475.057007 515.229431,477.646362 
	C520.851196,470.384277 526.704773,462.850769 532.518372,455.286499 
	C533.530579,453.969482 534.318054,452.481445 535.305481,451.143372 
	C539.086060,446.020386 544.339600,444.754181 549.764282,448.123505 
	C558.108948,453.306396 566.345703,458.674103 574.473816,464.190765 
	C579.953674,467.909912 581.091553,473.474274 577.466003,478.986145 
	C559.890808,505.705597 538.239502,528.589355 512.343689,547.387207 
	C506.639648,551.527771 501.399292,550.406921 496.878754,544.261108 
	C487.309021,531.250854 477.847656,518.160767 468.584259,505.436462 
	C452.398682,513.173096 436.436401,520.803040 419.873901,528.719910 
	C420.435577,530.881470 421.205841,533.845825 422.220154,537.749329 
	C430.584320,534.343628 438.519257,531.472534 446.143951,527.933044 
	C461.984863,520.579468 463.418182,520.953308 471.365906,536.585449 
	C474.308838,542.374023 477.335571,548.120056 480.267883,553.913940 
	C484.070892,561.428101 482.348450,566.503967 474.874969,570.290161 
	C446.799072,584.513733 417.060120,593.109375 385.828491,596.675293 
	C379.414337,597.407593 374.628296,593.928040 373.888855,587.523743 
	C372.207245,572.959717 370.745667,558.370239 369.176727,543.793091 
	C368.949707,541.684082 368.623535,539.585754 368.453949,538.312988 
	C350.304474,536.840393 332.786438,535.419067 314.746033,533.955383 
	C314.104218,536.202881 313.257233,539.168762 312.130463,543.114502 
	C322.447906,544.413879 332.106812,545.925476 341.823547,546.778870 
	C353.780792,547.829041 356.481842,550.787903 355.627411,562.894653 
	C355.064423,570.871704 354.884338,578.876648 354.270111,586.848877 
	C353.688507,594.397217 349.971313,597.695801 342.598419,597.354797 
	C310.795868,595.884155 280.440094,588.221741 251.264603,575.689087 
	C244.906250,572.957825 242.997040,567.550598 245.958679,560.780273 
	C252.027847,546.906067 258.273590,533.109192 264.437256,519.276306 
	C264.903168,518.230774 265.295349,517.152405 265.576904,516.450623 
	C250.704300,506.319275 236.064484,496.346527 220.954071,486.053192 
	C219.440552,487.732880 217.371918,490.028595 214.689667,493.005310 
	C223.101456,499.352112 231.346710,505.782684 239.817612,511.900818 
	C247.082825,517.148193 248.254028,521.817871 243.484909,529.203125 
	C238.786621,536.478699 234.081314,543.750610 229.286636,550.962769 
	C224.552429,558.083923 219.374008,559.079102 212.405823,554.437317 
	C186.780685,537.367615 164.779572,516.486450 146.393066,491.789581 
	C141.001801,484.547974 141.749115,479.438263 149.104568,474.072479 
	C160.678345,465.629425 172.273743,457.216003 183.850861,448.777527 
	C185.172974,447.813904 186.436615,446.770050 187.095047,446.256561 
	C179.326096,429.985901 171.757706,414.135315 163.922424,397.725769 
	C161.872513,398.203156 159.018417,398.867798 155.097198,399.780945 
	C157.644119,406.562408 159.946884,413.038666 162.517670,419.406677 
	C164.010208,423.103821 165.970581,426.609772 167.654709,430.232361 
	C170.869797,437.148071 169.348770,442.181641 162.686096,445.710358 
	C154.302216,450.150635 145.840668,454.450317 137.330688,458.644379 
	C131.375015,461.579559 126.007454,459.870850 123.000298,453.995514 
	C111.704971,431.926544 103.803574,408.663269 99.103203,384.334808 
	C97.809181,377.637115 96.931953,370.852417 96.049652,364.083374 
	C95.114265,356.907104 98.433693,352.440826 105.616943,351.606506 
	C120.013695,349.934387 134.423676,348.321533 148.863815,347.108185 
	C153.723511,346.699890 155.344391,345.621735 155.464493,340.115814 
	C155.804581,324.524780 157.277130,308.958466 158.359177,292.539154 
	C156.543747,291.971466 153.610672,291.054291 149.732040,289.841461 
	C148.463669,298.477203 147.182297,306.795441 146.049194,315.133820 
	C145.646164,318.099731 145.699585,321.125061 145.375687,324.104889 
	C144.717331,330.161835 140.817978,333.853973 134.692596,333.643463 
	C124.702972,333.300201 114.714775,332.736694 104.747704,331.979950 
	C98.404953,331.498352 94.819809,327.332520 95.154633,320.875946 
	C96.819046,288.779633 104.182785,258.009521 117.137062,228.602798 
	C119.729927,222.716888 125.076149,220.832474 131.325668,223.546585 
	C144.909164,229.445770 158.410629,235.533768 171.947708,241.539917 
	C173.448547,242.205780 174.962906,242.841141 175.914322,243.250916 
	C186.104370,228.382492 196.139221,213.740524 206.518372,198.596161 
	C205.009903,197.293045 202.764526,195.353348 199.641830,192.655746 
	C193.921402,200.079163 187.985413,207.756302 182.085831,215.461304 
	C180.973846,216.913605 180.107086,218.558563 178.954254,219.973755 
	C175.369415,224.374268 170.376434,225.518127 165.595963,222.548447 
	C156.968399,217.188843 148.441574,211.654099 140.048981,205.933838 
	C134.615494,202.230484 133.956604,196.621384 137.904633,190.626129 
	C153.712479,166.621078 173.008835,145.827133 195.635284,128.115692 
	C197.602905,126.575493 199.594345,125.062759 201.621170,123.601730 
	C207.952652,119.037750 213.294098,119.780151 217.952560,126.097641 
	C226.850204,138.164093 235.632538,150.315582 244.464600,162.430420 
	C245.146667,163.365982 245.843292,164.290909 246.380829,165.015442 
	C262.490723,157.234390 278.427948,149.536728 294.978668,141.542755 
	C294.402710,139.435150 293.596466,136.484726 292.509766,132.508118 
	C282.496307,136.760757 272.979156,140.606537 263.632416,144.829437 
	C254.979431,148.738861 250.353302,147.379257 246.122986,139.083786 
	C242.266205,131.520721 238.350739,123.987160 234.549301,116.396446 
	C230.788162,108.886192 232.480988,103.821869 240.025879,100.036751 
	C268.136963,85.934044 297.840881,77.181831 329.092590,73.701561 
	C335.764893,72.958511 340.276520,76.528656 341.059753,83.417412 
	C342.696991,97.817886 344.327454,112.224411 345.559570,126.662682 
	C345.970856,131.482513 347.084808,133.129868 352.544098,133.258514 
	C368.147491,133.626160 383.725159,135.086273 400.091614,136.168198 
	C400.613281,134.414032 401.490936,131.463013 402.668549,127.503342 
	C394.670990,126.286461 387.034821,125.040184 379.371002,123.996628 
	C375.910217,123.525383 372.389587,123.511749 368.904755,123.195084 
	C362.535919,122.616371 358.816559,118.769249 359.029022,112.339310 
	C359.353668,102.515778 359.890594,92.692276 360.643097,82.892227 
	C361.185852,75.823593 365.061462,72.644211 372.322723,72.978722 
	C394.071808,73.980667 415.324524,77.918350 436.049072,84.496552 
	C444.756927,87.260529 453.313080,90.559135 461.786407,93.989601 
	C470.443542,97.494484 472.168701,102.359367 468.314423,111.043968 
	C461.908569,125.477943 455.448090,139.887650 449.297760,153.664368 
	C464.275757,163.919907 478.912170,173.941544 494.011292,184.279984 
	C495.523468,182.720093 497.567719,180.611343 500.350983,177.740250 
	C492.757904,171.866241 485.444031,166.184082 478.097717,160.544159 
	C476.514008,159.328339 474.771027,158.321198 473.174713,157.120483 
	C468.327850,153.474884 467.029266,148.190964 470.219666,143.056747 
	C475.492554,134.571121 480.955261,126.195328 486.591003,117.946121 
	C490.218781,112.636002 495.639557,111.557243 500.995453,115.047218 
	C527.947144,132.609238 550.873413,154.451767 569.775208,180.474869 
	C573.619080,185.766953 572.588379,191.172058 567.076599,195.252029 
	C553.831177,205.056488 540.475220,214.711594 527.658875,224.065735 
	C535.448303,240.318756 543.094666,256.273254 550.971436,272.708527 
	C553.103271,272.167816 555.951294,271.445465 559.750366,270.481873 
	C557.195862,263.737274 554.863464,257.255981 552.278198,250.877182 
	C550.780273,247.181305 548.827515,243.672272 547.163879,240.040482 
	C543.976318,233.081909 545.566040,228.146957 552.222473,224.656815 
	C560.330139,220.405746 568.460144,216.193329 576.653809,212.111389 
	C583.619385,208.641235 588.823547,210.479111 592.320557,217.379791 
	C603.455078,239.352203 611.162170,262.488190 615.896362,287.078735 
M193.184479,170.468033 
	C198.880539,166.582596 203.137451,166.765747 207.910538,171.429245 
	C214.585327,177.950821 221.195374,184.542389 227.698517,191.234787 
	C232.944046,196.632965 233.122604,201.695114 227.981064,207.014572 
	C212.901825,222.615662 200.773499,240.180115 191.686813,259.895874 
	C188.351471,267.132690 183.549591,268.733215 176.151230,265.483795 
	C162.897354,259.662537 149.689148,253.737381 136.457352,247.865799 
	C135.001053,247.219574 133.515381,246.639542 131.780396,245.919739 
	C123.451263,267.638916 117.957954,289.375671 116.168823,312.453430 
	C119.703804,312.453430 122.617142,312.453430 125.702110,312.453430 
	C125.878067,311.518585 126.029434,310.724792 126.176743,309.930298 
	C128.208603,298.971558 130.029602,287.968079 132.341766,277.068787 
	C134.016052,269.176422 139.082214,266.316772 146.792770,268.331116 
	C155.808411,270.686371 164.822098,273.057648 173.784225,275.606293 
	C180.489532,277.513153 183.327560,282.223145 181.533295,288.947754 
	C176.104752,309.293060 174.681747,329.944794 176.015152,350.890045 
	C176.719757,361.958008 173.743805,364.941803 162.529892,365.966858 
	C148.925888,367.210358 135.343933,368.697571 121.757355,370.125885 
	C120.347794,370.274048 118.971413,370.737946 117.361649,371.105072 
	C120.890320,394.003967 127.231781,415.515991 136.949005,436.293488 
	C140.146057,434.574890 142.743881,433.178436 145.576324,431.655823 
	C144.840652,429.793182 144.182587,428.297455 143.652603,426.757690 
	C140.082062,416.383759 136.251984,406.086700 133.096008,395.587372 
	C131.255585,389.464569 134.298569,384.692200 140.455322,382.937622 
	C149.897964,380.246552 159.386353,377.696991 168.920807,375.353790 
	C175.365677,373.769928 180.096878,376.571930 181.902878,383.048767 
	C187.776047,404.112122 197.078903,423.494751 209.664581,441.365356 
	C213.882904,447.355042 212.865173,452.510284 206.951309,456.944397 
	C201.354431,461.140839 195.635971,465.174805 189.986206,469.301086 
	C182.507050,474.763397 175.042725,480.246033 167.369980,485.867981 
	C181.850693,504.084839 197.962616,519.535461 216.845444,532.859741 
	C218.777725,529.939453 220.479446,527.367615 222.022354,525.035767 
	C212.656128,516.923462 203.514053,509.193390 194.593658,501.215424 
	C188.279724,495.568634 188.276474,490.177643 194.276276,484.062805 
	C200.228561,477.996399 206.275970,472.023041 212.305084,466.032410 
	C218.967911,459.412109 223.538712,459.083710 230.276672,465.521759 
	C245.727371,480.284637 263.271515,491.870270 282.496033,501.063202 
	C289.258026,504.296692 290.937408,509.320618 287.831116,516.351257 
	C281.980408,529.593445 276.052185,542.801514 270.178009,556.033447 
	C269.532318,557.487915 269.029022,559.005493 268.310638,560.883423 
	C289.944122,569.165833 311.660980,574.609680 334.673828,576.489197 
	C334.673828,572.864014 334.673828,569.953308 334.673828,566.886414 
	C333.344299,566.646484 332.213135,566.450439 331.085144,566.237610 
	C320.298828,564.203003 309.458557,562.411743 298.746155,560.042664 
	C291.519745,558.444519 288.561737,553.438477 290.279053,546.702026 
	C292.621582,537.512817 295.084015,528.351013 297.690247,519.233276 
	C299.782501,511.913757 304.283234,509.381256 311.770508,511.272766 
	C332.310730,516.461853 353.122314,518.144653 374.233490,516.529663 
	C383.421478,515.826782 387.008728,518.941223 387.960327,528.188477 
	C388.966644,537.967529 389.910858,547.753052 390.941345,557.529480 
	C391.560120,563.400085 392.291992,569.258789 392.997803,575.335754 
	C416.079407,571.690186 437.497742,565.420593 458.426361,555.727173 
	C456.800354,552.609558 455.382690,549.891296 453.868225,546.987488 
	C452.078125,547.721130 450.742523,548.346985 449.355743,548.824341 
	C438.987366,552.393738 428.689026,556.197449 418.203796,559.385193 
	C411.786713,561.336121 406.847900,558.336121 405.082611,552.066223 
	C402.512451,542.937500 400.087585,533.764404 397.799347,524.560852 
	C395.927368,517.031433 398.353973,512.761230 405.858276,510.591888 
	C426.518463,504.619385 445.682404,495.608215 463.236572,483.140533 
	C469.373199,478.782043 474.711151,479.703613 479.219696,485.750305 
	C485.392883,494.029419 491.385071,502.443298 497.477020,510.783234 
	C500.978638,515.577026 504.523987,520.338745 508.145386,525.244629 
	C526.337280,510.692322 541.912292,494.518524 555.157837,475.638885 
	C551.945679,473.630157 549.343384,472.002808 546.793823,470.408447 
	C542.692444,475.574829 539.077698,480.359039 535.212830,484.931732 
	C531.343140,489.510193 527.297546,493.946869 523.195007,498.319885 
	C517.914368,503.948608 512.207275,504.104706 506.684937,498.711914 
	C500.127563,492.308380 493.659668,485.810455 487.259430,479.249634 
	C481.820282,473.673950 481.692993,468.676544 487.062439,463.117767 
	C502.017487,447.635254 514.035095,430.188385 523.064819,410.637482 
	C526.512756,403.172058 531.234863,401.605042 538.964783,404.972076 
	C547.509399,408.694031 556.001892,412.535461 564.521423,416.315186 
	C570.555115,418.992126 576.595947,421.652954 583.061157,424.509918 
	C591.320435,402.800232 596.812805,381.071777 598.714172,358.026001 
	C595.183594,358.026001 592.133972,358.026001 589.068115,358.026001 
	C588.884827,359.183441 588.774658,360.007050 588.622253,360.822754 
	C586.575195,371.778137 584.756104,382.783325 582.386902,393.668762 
	C580.856750,400.699554 575.851685,404.037415 569.640991,402.501923 
	C559.787292,400.065704 549.975342,397.425751 540.245422,394.536255 
	C534.346008,392.784302 531.495728,387.917206 533.207458,382.058075 
	C539.382080,360.923035 539.504822,339.331085 538.695984,317.629639 
	C538.381714,309.198486 541.251465,305.760071 549.721191,304.775391 
	C558.985840,303.698303 568.282898,302.901550 577.560242,301.929657 
	C584.095520,301.245026 590.621521,300.471924 597.531372,299.695648 
	C593.989746,276.467896 587.616272,254.985245 577.933899,234.174835 
	C574.690857,235.845123 572.077576,237.191055 569.239441,238.652786 
	C570.016968,240.595291 570.690918,242.095612 571.225464,243.644073 
	C574.750916,253.856949 578.522827,263.996521 581.651672,274.330322 
	C583.642578,280.905579 580.488098,285.829559 573.886353,287.683014 
	C565.234924,290.111969 556.551392,292.433014 547.846802,294.664490 
	C539.278320,296.861023 535.042114,294.398224 532.547852,285.850922 
	C526.714966,265.863464 517.994080,247.275482 505.961395,230.247452 
	C500.690918,222.788940 501.596558,218.023895 509.121429,212.530182 
	C518.673340,205.556595 528.262756,198.634384 537.814941,191.661179 
	C540.974854,189.354385 544.069458,186.958267 547.408508,184.441254 
	C532.996399,166.273727 516.849792,150.857727 497.991516,137.504791 
	C496.080627,140.438171 494.408478,143.005096 492.842407,145.409134 
	C501.993469,153.300583 510.875916,160.801285 519.573486,168.510574 
	C526.675537,174.805603 526.762207,180.075256 520.163879,186.748489 
	C514.305176,192.673615 508.389404,198.542297 502.492889,204.429977 
	C495.985809,210.927368 491.093231,211.109482 484.465057,204.728058 
	C469.319153,190.146164 452.195831,178.518219 433.138733,169.664856 
	C425.371368,166.056351 423.737091,161.335297 427.239197,153.455460 
	C432.443756,141.744949 437.687286,130.051743 442.899109,118.344421 
	C444.152863,115.528091 445.347137,112.685272 446.686615,109.581589 
	C424.919098,101.137398 403.151031,95.839149 380.288818,93.845383 
	C380.288818,97.641197 380.288818,100.679718 380.288818,103.075470 
	C392.397400,105.475143 404.015594,107.612572 415.552643,110.123039 
	C423.030304,111.750191 426.326477,116.792870 424.605865,123.580200 
	C422.234741,132.933624 419.712036,142.252335 417.045380,151.525848 
	C415.110474,158.254822 410.362732,161.060989 403.688599,159.299774 
	C382.842133,153.798645 361.690277,152.386108 340.245789,153.886673 
	C331.295441,154.512970 327.867401,151.372925 326.922607,142.342377 
	C325.917053,132.730972 325.000732,123.110207 323.989899,113.499367 
	C323.353333,107.446823 322.614746,101.405006 321.893127,95.107323 
	C298.736115,98.601250 277.249634,104.959663 256.424316,114.687714 
	C258.099976,117.963554 259.427399,120.558655 260.886841,123.411812 
	C262.839539,122.630356 264.330750,121.960403 265.869934,121.429413 
	C276.082306,117.906342 286.214783,114.111931 296.555969,111.016068 
	C303.438202,108.955711 308.066803,112.131279 309.977844,119.170212 
	C312.158081,127.200676 314.225342,135.261826 316.411377,143.290680 
	C319.237488,153.670319 316.999329,157.717361 306.709747,160.529999 
	C287.056061,165.902328 269.228882,175.097824 252.538040,186.593094 
	C245.270264,191.598541 240.261978,191.015884 235.069092,183.930161 
	C226.601074,172.375473 218.200577,160.771347 209.753784,149.201050 
	C208.811539,147.910355 207.753983,146.703827 206.591705,145.262024 
	C188.471191,159.572067 173.090256,175.806824 159.668167,194.651779 
	C162.670486,196.560287 165.386673,198.286896 167.591446,199.688416 
	C176.234909,189.792740 184.445053,180.393127 193.184479,170.468033 
z"/>
<path fill="#191D28" opacity="1.000000" stroke="none" 
	d="
M192.919846,170.730774 
	C184.445053,180.393127 176.234909,189.792740 167.591446,199.688416 
	C165.386673,198.286896 162.670486,196.560287 159.668167,194.651779 
	C173.090256,175.806824 188.471191,159.572067 206.591705,145.262024 
	C207.753983,146.703827 208.811539,147.910355 209.753784,149.201050 
	C218.200577,160.771347 226.601074,172.375473 235.069092,183.930161 
	C240.261978,191.015884 245.270264,191.598541 252.538040,186.593094 
	C269.228882,175.097824 287.056061,165.902328 306.709747,160.529999 
	C316.999329,157.717361 319.237488,153.670319 316.411377,143.290680 
	C314.225342,135.261826 312.158081,127.200676 309.977844,119.170212 
	C308.066803,112.131279 303.438202,108.955711 296.555969,111.016068 
	C286.214783,114.111931 276.082306,117.906342 265.869934,121.429413 
	C264.330750,121.960403 262.839539,122.630356 260.886841,123.411812 
	C259.427399,120.558655 258.099976,117.963554 256.424316,114.687714 
	C277.249634,104.959663 298.736115,98.601250 321.893127,95.107323 
	C322.614746,101.405006 323.353333,107.446823 323.989899,113.499367 
	C325.000732,123.110207 325.917053,132.730972 326.922607,142.342377 
	C327.867401,151.372925 331.295441,154.512970 340.245789,153.886673 
	C361.690277,152.386108 382.842133,153.798645 403.688599,159.299774 
	C410.362732,161.060989 415.110474,158.254822 417.045380,151.525848 
	C419.712036,142.252335 422.234741,132.933624 424.605865,123.580200 
	C426.326477,116.792870 423.030304,111.750191 415.552643,110.123039 
	C404.015594,107.612572 392.397400,105.475143 380.288818,103.075470 
	C380.288818,100.679718 380.288818,97.641197 380.288818,93.845383 
	C403.151031,95.839149 424.919098,101.137398 446.686615,109.581589 
	C445.347137,112.685272 444.152863,115.528091 442.899109,118.344421 
	C437.687286,130.051743 432.443756,141.744949 427.239197,153.455460 
	C423.737091,161.335297 425.371368,166.056351 433.138733,169.664856 
	C452.195831,178.518219 469.319153,190.146164 484.465057,204.728058 
	C491.093231,211.109482 495.985809,210.927368 502.492889,204.429977 
	C508.389404,198.542297 514.305176,192.673615 520.163879,186.748489 
	C526.762207,180.075256 526.675537,174.805603 519.573486,168.510574 
	C510.875916,160.801285 501.993469,153.300583 492.842407,145.409134 
	C494.408478,143.005096 496.080627,140.438171 497.991516,137.504791 
	C516.849792,150.857727 532.996399,166.273727 547.408508,184.441254 
	C544.069458,186.958267 540.974854,189.354385 537.814941,191.661179 
	C528.262756,198.634384 518.673340,205.556595 509.121429,212.530182 
	C501.596558,218.023895 500.690918,222.788940 505.961395,230.247452 
	C517.994080,247.275482 526.714966,265.863464 532.547852,285.850922 
	C535.042114,294.398224 539.278320,296.861023 547.846802,294.664490 
	C556.551392,292.433014 565.234924,290.111969 573.886353,287.683014 
	C580.488098,285.829559 583.642578,280.905579 581.651672,274.330322 
	C578.522827,263.996521 574.750916,253.856949 571.225464,243.644073 
	C570.690918,242.095612 570.016968,240.595291 569.239441,238.652786 
	C572.077576,237.191055 574.690857,235.845123 577.933899,234.174835 
	C587.616272,254.985245 593.989746,276.467896 597.531372,299.695648 
	C590.621521,300.471924 584.095520,301.245026 577.560242,301.929657 
	C568.282898,302.901550 558.985840,303.698303 549.721191,304.775391 
	C541.251465,305.760071 538.381714,309.198486 538.695984,317.629639 
	C539.504822,339.331085 539.382080,360.923035 533.207458,382.058075 
	C531.495728,387.917206 534.346008,392.784302 540.245422,394.536255 
	C549.975342,397.425751 559.787292,400.065704 569.640991,402.501923 
	C575.851685,404.037415 580.856750,400.699554 582.386902,393.668762 
	C584.756104,382.783325 586.575195,371.778137 588.622253,360.822754 
	C588.774658,360.007050 588.884827,359.183441 589.068115,358.026001 
	C592.133972,358.026001 595.183594,358.026001 598.714172,358.026001 
	C596.812805,381.071777 591.320435,402.800232 583.061157,424.509918 
	C576.595947,421.652954 570.555115,418.992126 564.521423,416.315186 
	C556.001892,412.535461 547.509399,408.694031 538.964783,404.972076 
	C531.234863,401.605042 526.512756,403.172058 523.064819,410.637482 
	C514.035095,430.188385 502.017487,447.635254 487.062439,463.117767 
	C481.692993,468.676544 481.820282,473.673950 487.259430,479.249634 
	C493.659668,485.810455 500.127563,492.308380 506.684937,498.711914 
	C512.207275,504.104706 517.914368,503.948608 523.195007,498.319885 
	C527.297546,493.946869 531.343140,489.510193 535.212830,484.931732 
	C539.077698,480.359039 542.692444,475.574829 546.793823,470.408447 
	C549.343384,472.002808 551.945679,473.630157 555.157837,475.638885 
	C541.912292,494.518524 526.337280,510.692322 508.145386,525.244629 
	C504.523987,520.338745 500.978638,515.577026 497.477020,510.783234 
	C491.385071,502.443298 485.392883,494.029419 479.219696,485.750305 
	C474.711151,479.703613 469.373199,478.782043 463.236572,483.140533 
	C445.682404,495.608215 426.518463,504.619385 405.858276,510.591888 
	C398.353973,512.761230 395.927368,517.031433 397.799347,524.560852 
	C400.087585,533.764404 402.512451,542.937500 405.082611,552.066223 
	C406.847900,558.336121 411.786713,561.336121 418.203796,559.385193 
	C428.689026,556.197449 438.987366,552.393738 449.355743,548.824341 
	C450.742523,548.346985 452.078125,547.721130 453.868225,546.987488 
	C455.382690,549.891296 456.800354,552.609558 458.426361,555.727173 
	C437.497742,565.420593 416.079407,571.690186 392.997803,575.335754 
	C392.291992,569.258789 391.560120,563.400085 390.941345,557.529480 
	C389.910858,547.753052 388.966644,537.967529 387.960327,528.188477 
	C387.008728,518.941223 383.421478,515.826782 374.233490,516.529663 
	C353.122314,518.144653 332.310730,516.461853 311.770508,511.272766 
	C304.283234,509.381256 299.782501,511.913757 297.690247,519.233276 
	C295.084015,528.351013 292.621582,537.512817 290.279053,546.702026 
	C288.561737,553.438477 291.519745,558.444519 298.746155,560.042664 
	C309.458557,562.411743 320.298828,564.203003 331.085144,566.237610 
	C332.213135,566.450439 333.344299,566.646484 334.673828,566.886414 
	C334.673828,569.953308 334.673828,572.864014 334.673828,576.489197 
	C311.660980,574.609680 289.944122,569.165833 268.310638,560.883423 
	C269.029022,559.005493 269.532318,557.487915 270.178009,556.033447 
	C276.052185,542.801514 281.980408,529.593445 287.831116,516.351257 
	C290.937408,509.320618 289.258026,504.296692 282.496033,501.063202 
	C263.271515,491.870270 245.727371,480.284637 230.276672,465.521759 
	C223.538712,459.083710 218.967911,459.412109 212.305084,466.032410 
	C206.275970,472.023041 200.228561,477.996399 194.276276,484.062805 
	C188.276474,490.177643 188.279724,495.568634 194.593658,501.215424 
	C203.514053,509.193390 212.656128,516.923462 222.022354,525.035767 
	C220.479446,527.367615 218.777725,529.939453 216.845444,532.859741 
	C197.962616,519.535461 181.850693,504.084839 167.369980,485.867981 
	C175.042725,480.246033 182.507050,474.763397 189.986206,469.301086 
	C195.635971,465.174805 201.354431,461.140839 206.951309,456.944397 
	C212.865173,452.510284 213.882904,447.355042 209.664581,441.365356 
	C197.078903,423.494751 187.776047,404.112122 181.902878,383.048767 
	C180.096878,376.571930 175.365677,373.769928 168.920807,375.353790 
	C159.386353,377.696991 149.897964,380.246552 140.455322,382.937622 
	C134.298569,384.692200 131.255585,389.464569 133.096008,395.587372 
	C136.251984,406.086700 140.082062,416.383759 143.652603,426.757690 
	C144.182587,428.297455 144.840652,429.793182 145.576324,431.655823 
	C142.743881,433.178436 140.146057,434.574890 136.949005,436.293488 
	C127.231781,415.515991 120.890320,394.003967 117.361649,371.105072 
	C118.971413,370.737946 120.347794,370.274048 121.757355,370.125885 
	C135.343933,368.697571 148.925888,367.210358 162.529892,365.966858 
	C173.743805,364.941803 176.719757,361.958008 176.015152,350.890045 
	C174.681747,329.944794 176.104752,309.293060 181.533295,288.947754 
	C183.327560,282.223145 180.489532,277.513153 173.784225,275.606293 
	C164.822098,273.057648 155.808411,270.686371 146.792770,268.331116 
	C139.082214,266.316772 134.016052,269.176422 132.341766,277.068787 
	C130.029602,287.968079 128.208603,298.971558 126.176743,309.930298 
	C126.029434,310.724792 125.878067,311.518585 125.702110,312.453430 
	C122.617142,312.453430 119.703804,312.453430 116.168823,312.453430 
	C117.957954,289.375671 123.451263,267.638916 131.780396,245.919739 
	C133.515381,246.639542 135.001053,247.219574 136.457352,247.865799 
	C149.689148,253.737381 162.897354,259.662537 176.151230,265.483795 
	C183.549591,268.733215 188.351471,267.132690 191.686813,259.895874 
	C200.773499,240.180115 212.901825,222.615662 227.981064,207.014572 
	C233.122604,201.695114 232.944046,196.632965 227.698517,191.234787 
	C221.195374,184.542389 214.585327,177.950821 207.910538,171.429245 
	C203.137451,166.765747 198.880539,166.582596 192.919846,170.730774 
M445.888824,470.404114 
	C511.268219,427.450439 536.769165,344.392059 506.702759,272.328766 
	C469.322784,182.736191 359.654724,146.099930 275.905273,195.227417 
	C201.848160,238.669373 174.502518,330.993530 212.953644,407.764252 
	C256.026794,493.763245 365.575500,523.492249 445.888824,470.404114 
z"/>
<path fill="#FAFAFA" opacity="1.000000" stroke="none" 
	d="
M445.590515,470.609833 
	C365.575500,523.492249 256.026794,493.763245 212.953644,407.764252 
	C174.502518,330.993530 201.848160,238.669373 275.905273,195.227417 
	C359.654724,146.099930 469.322784,182.736191 506.702759,272.328766 
	C536.769165,344.392059 511.268219,427.450439 445.590515,470.609833 
M444.111450,426.357971 
	C446.688263,430.760437 449.265106,435.162933 452.674255,440.987427 
	C460.183228,431.910522 466.972260,423.581696 473.912781,415.381104 
	C476.310120,412.548553 476.257416,410.204681 474.382568,406.954681 
	C436.281281,340.906067 398.304016,274.785919 360.294769,208.684235 
	C359.510254,207.319962 358.639923,206.005035 357.484222,204.142715 
	C356.404572,205.757492 355.722076,206.658981 355.163025,207.631439 
	C318.569000,271.281647 281.972321,334.930389 245.410416,398.599030 
	C237.757156,411.926331 237.696396,412.060822 247.475067,423.952301 
	C252.051651,429.517731 257.199982,434.613007 262.454346,440.317810 
	C263.689331,438.378418 264.340881,437.438416 264.909180,436.450470 
	C275.617462,417.834137 286.312317,399.210052 297.017212,380.591797 
	C312.452209,353.746765 327.877899,326.896393 343.341339,300.067810 
	C347.543762,292.776794 353.553802,289.747314 360.703278,291.282593 
	C366.419739,292.510254 369.582397,296.646362 372.332672,301.439240 
	C396.113861,342.882050 419.970917,384.281372 444.111450,426.357971 
M316.231171,387.777588 
	C303.833008,409.375977 291.434845,430.974396 279.064148,452.524963 
	C326.228546,486.436951 395.153168,482.937836 435.704071,452.324005 
	C409.792938,407.287659 383.864258,362.220825 357.423096,316.263214 
	C343.469330,340.525299 330.056549,363.846680 316.231171,387.777588 
M300.342133,205.751587 
	C219.109482,242.195099 200.429199,333.266602 227.388870,389.276917 
	C264.551544,324.642273 301.552368,260.289154 339.112915,194.962509 
	C325.056854,196.864212 312.835388,200.368729 300.342133,205.751587 
M498.848755,341.227966 
	C501.909149,252.764740 429.669128,198.851227 376.362488,195.982162 
	C413.463470,260.527161 450.433960,324.845154 487.885345,389.999725 
	C494.674622,373.778015 497.920410,358.236450 498.848755,341.227966 
z"/>
<path fill="#151924" opacity="1.000000" stroke="none" 
	d="
M443.958405,426.025818 
	C419.970917,384.281372 396.113861,342.882050 372.332672,301.439240 
	C369.582397,296.646362 366.419739,292.510254 360.703278,291.282593 
	C353.553802,289.747314 347.543762,292.776794 343.341339,300.067810 
	C327.877899,326.896393 312.452209,353.746765 297.017212,380.591797 
	C286.312317,399.210052 275.617462,417.834137 264.909180,436.450470 
	C264.340881,437.438416 263.689331,438.378418 262.454346,440.317810 
	C257.199982,434.613007 252.051651,429.517731 247.475067,423.952301 
	C237.696396,412.060822 237.757156,411.926331 245.410416,398.599030 
	C281.972321,334.930389 318.569000,271.281647 355.163025,207.631439 
	C355.722076,206.658981 356.404572,205.757492 357.484222,204.142715 
	C358.639923,206.005035 359.510254,207.319962 360.294769,208.684235 
	C398.304016,274.785919 436.281281,340.906067 474.382568,406.954681 
	C476.257416,410.204681 476.310120,412.548553 473.912781,415.381104 
	C466.972260,423.581696 460.183228,431.910522 452.674255,440.987427 
	C449.265106,435.162933 446.688263,430.760437 443.958405,426.025818 
z"/>
<path fill="#141823" opacity="1.000000" stroke="none" 
	d="
M316.437500,387.472839 
	C330.056549,363.846680 343.469330,340.525299 357.423096,316.263214 
	C383.864258,362.220825 409.792938,407.287659 435.704071,452.324005 
	C395.153168,482.937836 326.228546,486.436951 279.064148,452.524963 
	C291.434845,430.974396 303.833008,409.375977 316.437500,387.472839 
z"/>
<path fill="#151924" opacity="1.000000" stroke="none" 
	d="
M300.685364,205.585510 
	C312.835388,200.368729 325.056854,196.864212 339.112915,194.962509 
	C301.552368,260.289154 264.551544,324.642273 227.388870,389.276917 
	C200.429199,333.266602 219.109482,242.195099 300.685364,205.585510 
z"/>
<path fill="#151924" opacity="1.000000" stroke="none" 
	d="
M498.837769,341.697357 
	C497.920410,358.236450 494.674622,373.778015 487.885345,389.999725 
	C450.433960,324.845154 413.463470,260.527161 376.362488,195.982162 
	C429.669128,198.851227 501.909149,252.764740 498.837769,341.697357 
z"/>
</svg>